<svg width="35" height="31" viewBox="0 0 35 31" fill="none" xmlns="http://www.w3.org/2000/svg">
<path d="M28.4375 24.7917C24.8194 24.7917 21.875 21.8473 21.875 18.2292C21.875 14.611 24.8194 11.6667 28.4375 11.6667H32.0833V8.75C32.0833 7.14146 30.7752 5.83333 29.1667 5.83333H27.7083V2.91667C27.7083 1.30813 26.4002 0 24.7917 0H4.375C2.21229 0 0.424375 1.58083 0.074375 3.64438C0.0422917 3.76396 0 3.88063 0 4.01042V26.25C0 28.6621 1.96292 30.625 4.375 30.625H29.1667C30.7752 30.625 32.0833 29.3169 32.0833 27.7083V24.7917H28.4375ZM2.91667 4.375C2.91667 3.57146 3.57 2.91667 4.375 2.91667H24.7917V5.83333H4.375C3.57 5.83333 2.91667 5.17854 2.91667 4.375Z" fill="url(#paint0_linear_202_2)"/>
<path d="M33.9062 13.8516H28.4375C26.0254 13.8516 24.0625 15.8145 24.0625 18.2266C24.0625 20.6386 26.0254 22.6016 28.4375 22.6016H33.9062C34.51 22.6016 35 22.1116 35 21.5078V14.9453C35 14.3416 34.51 13.8516 33.9062 13.8516ZM28.4375 19.6849C27.6325 19.6849 26.9792 19.0316 26.9792 18.2266C26.9792 17.4216 27.6325 16.7682 28.4375 16.7682C29.2425 16.7682 29.8958 17.4216 29.8958 18.2266C29.8958 19.0316 29.2425 19.6849 28.4375 19.6849Z" fill="url(#paint1_linear_202_2)"/>
<defs>
<linearGradient id="paint0_linear_202_2" x1="-9.15133" y1="6.57714" x2="22.5452" y2="39.783" gradientUnits="userSpaceOnUse">
<stop stop-color="#1DA69A"/>
<stop offset="1" stop-color="#52FFF0"/>
</linearGradient>
<linearGradient id="paint1_linear_202_2" x1="20.9427" y1="15.7307" x2="29.7875" y2="26.7868" gradientUnits="userSpaceOnUse">
<stop stop-color="#1DA69A"/>
<stop offset="1" stop-color="#52FFF0"/>
</linearGradient>
</defs>
</svg>
