<svg width="28" height="40" viewBox="0 0 28 40" fill="none" xmlns="http://www.w3.org/2000/svg">
<path d="M23.3305 28.9167C23.0271 29.2566 22.8043 29.6605 22.6787 30.0984C22.5531 30.5364 22.5279 30.997 22.6051 31.446L23.5982 35.749C24.3817 39.1447 22.5696 40.4701 19.571 38.6943L15.3819 36.2135C14.9547 35.9915 14.4804 35.8756 13.9989 35.8756C13.5175 35.8756 13.0432 35.9915 12.616 36.2135L8.42686 38.6942C5.42826 40.4701 3.61608 39.1447 4.39964 35.749L5.39272 31.4459C5.46988 30.9969 5.44472 30.5363 5.31912 30.0984C5.19352 29.6605 4.97072 29.2565 4.66732 28.9167L1.19197 25.4413C-0.859 23.3904 -0.196186 21.3222 2.66478 20.8454L7.12376 20.1022C7.53736 20.0088 7.92704 19.8305 8.26812 19.5787C8.60919 19.3268 8.89421 19.0068 9.10511 18.6389L11.5717 13.7057C12.9067 11.0356 15.0913 11.0356 16.4264 13.7057L18.8928 18.639C19.1037 19.0068 19.3887 19.3268 19.7298 19.5787C20.0709 19.8306 20.4606 20.0088 20.8741 20.1022L25.3331 20.8454C28.1941 21.3222 28.8569 23.3904 26.8059 25.4414L23.3305 28.9167Z" fill="url(#paint0_linear_121_2955)"/>
<path d="M2.79835 16.7652C3.16961 16.7651 3.52563 16.6176 3.78814 16.3551C4.05065 16.0925 4.19816 15.7365 4.19824 15.3653V2.29963C4.19892 2.11536 4.16322 1.93276 4.09317 1.76232C4.02313 1.59187 3.92012 1.43694 3.79006 1.30639C3.66 1.17585 3.50544 1.07227 3.33526 1.00159C3.16508 0.930913 2.98262 0.894531 2.79834 0.894531C2.61407 0.894531 2.4316 0.930913 2.26142 1.00159C2.09124 1.07227 1.93668 1.17585 1.80662 1.30639C1.67656 1.43694 1.57356 1.59187 1.50351 1.76232C1.43347 1.93276 1.39776 2.11536 1.39845 2.29963V15.3653C1.39853 15.7365 1.54604 16.0925 1.80856 16.3551C2.07107 16.6176 2.42709 16.7651 2.79835 16.7652ZM25.1967 16.7652C25.5679 16.7651 25.9239 16.6176 26.1864 16.3551C26.449 16.0926 26.5965 15.7366 26.5966 15.3653V2.29963C26.5973 2.11536 26.5616 1.93276 26.4915 1.76232C26.4215 1.59187 26.3185 1.43694 26.1884 1.30639C26.0583 1.17585 25.9038 1.07227 25.7336 1.00159C25.5634 0.930913 25.381 0.894531 25.1967 0.894531C25.0124 0.894531 24.8299 0.930913 24.6598 1.00159C24.4896 1.07227 24.335 1.17585 24.205 1.30639C24.0749 1.43694 23.9719 1.59187 23.9018 1.76232C23.8318 1.93276 23.7961 2.11536 23.7968 2.29963V15.3653C23.7969 15.7365 23.9444 16.0925 24.2069 16.3551C24.4694 16.6176 24.8254 16.7651 25.1967 16.7652ZM13.9975 7.43258C14.3688 7.43249 14.7248 7.28496 14.9873 7.02245C15.2498 6.75994 15.3973 6.40393 15.3974 6.03268V2.29957C15.3974 2.11574 15.3612 1.9337 15.2908 1.76385C15.2205 1.59401 15.1174 1.43969 14.9874 1.30969C14.8574 1.1797 14.7031 1.07658 14.5332 1.00623C14.3634 0.93588 14.1813 0.89967 13.9975 0.89967C13.8137 0.89967 13.6316 0.93588 13.4618 1.00623C13.2919 1.07658 13.1376 1.1797 13.0076 1.30969C12.8776 1.43969 12.7745 1.59401 12.7042 1.76385C12.6338 1.9337 12.5976 2.11574 12.5976 2.29957V6.03268C12.5977 6.40393 12.7452 6.75994 13.0077 7.02245C13.2702 7.28496 13.6263 7.43249 13.9975 7.43258Z" fill="url(#paint1_linear_121_2955)"/>
<defs>
<linearGradient id="paint0_linear_121_2955" x1="-7.98602" y1="17.6692" x2="20.7961" y2="46.6772" gradientUnits="userSpaceOnUse">
<stop stop-color="#FF8059"/>
<stop offset="1" stop-color="#FFBC8F"/>
</linearGradient>
<linearGradient id="paint1_linear_121_2955" x1="-5.78899" y1="4.30297" x2="9.04154" y2="27.8497" gradientUnits="userSpaceOnUse">
<stop stop-color="#FF8059"/>
<stop offset="1" stop-color="#FFBC8F"/>
</linearGradient>
</defs>
</svg>
