<svg xmlns:xlink="http://www.w3.org/1999/xlink" width="16" height="18" viewbox="0 0 16 18" fill="none" xmlns="http://www.w3.org/2000/svg"><path d="M7.7226 17.9998C8.4731 17.9867 9.19331 17.7731 9.75583 17.3966C10.3184 17.0202 10.6869 16.5053 10.7964 15.9429H4.52966C4.64222 16.5205 5.02805 17.0476 5.61538 17.4259C6.20271 17.8043 6.95156 18.0082 7.7226 17.9998Z" fill="#FFFFFF"></path><path d="M15.326 13.9537L15.1511 13.7994C14.6551 13.3574 14.2209 12.8505 13.8603 12.2925C13.4664 11.5224 13.2304 10.6813 13.166 9.81873V7.27811C13.1639 6.96951 13.1363 6.6616 13.0837 6.35752C12.9722 5.71402 12.6904 4.84826 12 4C11.4386 3.31021 12.1314 4 11 3L10.003 2.2483C9.46608 1.98405 8.88916 1.81029 8.29558 1.73401V1.086C8.29558 0.903905 8.22324 0.729269 8.09448 0.60051C7.96572 0.47175 7.79109 0.399414 7.60899 0.399414C7.4269 0.399414 7.25227 0.47175 7.12351 0.60051C6.99475 0.729269 6.92241 0.903905 6.92241 1.086V1.75972C5.59333 1.94721 4.37695 2.60921 3.49783 3.6235C2.61872 4.63778 2.13624 5.93587 2.13947 7.27811V9.81873C2.07505 10.6813 1.839 11.5224 1.44517 12.2925C1.09076 12.8491 0.663541 13.3559 0.17486 13.7994L0 13.9537V15.404H15.326V13.9537Z" fill="#FFFFFF"></path></svg>