<?xml version="1.0" ?>

<!-- Uploaded to: SVG Repo, www.svgrepo.com, Generator: SVG Repo Mixer Tools -->
<svg width="800px" height="800px" viewBox="0 0 32 32" id="svg5" version="1.1" xmlns="http://www.w3.org/2000/svg" xmlns:svg="http://www.w3.org/2000/svg">

<defs id="defs2"/>

<g id="layer1" transform="translate(-348,-244)">

<path d="m 357,268.00586 c -1.64501,0 -3,1.35499 -3,3 0,1.64501 1.35499,3 3,3 1.64501,0 3,-1.35499 3,-3 0,-1.64501 -1.35499,-3 -3,-3 z m 0,2 c 0.56413,0 1,0.43587 1,1 0,0.56413 -0.43587,1 -1,1 -0.56413,0 -1,-0.43587 -1,-1 0,-0.56413 0.43587,-1 1,-1 z" id="circle5331" style="color:#ffffff;fill:#ffffff;fill-rule:evenodd;stroke-linecap:round;stroke-linejoin:round;stroke-miterlimit:4.1;-inkscape-stroke:none"/>

<path d="m 371,268.00586 c -1.64501,0 -3,1.35499 -3,3 0,1.64501 1.35499,3 3,3 1.64501,0 3,-1.35499 3,-3 0,-1.64501 -1.35499,-3 -3,-3 z m 0,2 c 0.56413,0 1,0.43587 1,1 0,0.56413 -0.43587,1 -1,1 -0.56413,0 -1,-0.43587 -1,-1 0,-0.56413 0.43587,-1 1,-1 z" id="circle5333" style="color:#ffffff;fill:#ffffff;fill-rule:evenodd;stroke-linecap:round;stroke-linejoin:round;stroke-miterlimit:4.1;-inkscape-stroke:none"/>

<path d="m 372,246.00586 c -3.30186,0 -6,2.69814 -6,6 0,3.30186 2.69814,6 6,6 3.30186,0 6,-2.69814 6,-6 0,-3.30186 -2.69814,-6 -6,-6 z m 0,2 c 2.22098,0 4,1.77902 4,4 0,2.22098 -1.77902,4 -4,4 -2.22098,0 -4,-1.77902 -4,-4 0,-2.22098 1.77902,-4 4,-4 z" id="circle5337" style="color:#ffffff;fill:#ffffff;fill-rule:evenodd;stroke-linecap:round;stroke-linejoin:round;stroke-miterlimit:4.1;-inkscape-stroke:none"/>

<path d="m 370.58594,249.5918 a 1,1 0 0 0 -0.70703,0.29297 1,1 0 0 0 0,1.41406 l 0.70703,0.70703 -0.70703,0.70703 a 1,1 0 0 0 0,1.41406 1,1 0 0 0 1.41406,0 L 372,253.41992 l 0.70703,0.70703 a 1,1 0 0 0 1.41406,0 1,1 0 0 0 0,-1.41406 l -0.70703,-0.70703 0.70703,-0.70703 a 1,1 0 0 0 0,-1.41406 1,1 0 0 0 -0.70703,-0.29297 1,1 0 0 0 -0.70703,0.29297 L 372,250.5918 l -0.70703,-0.70703 a 1,1 0 0 0 -0.70703,-0.29297 z" id="path5339" style="color:#ffffff;fill:#ffffff;fill-rule:evenodd;stroke-linecap:round;stroke-linejoin:round;stroke-miterlimit:4.1;-inkscape-stroke:none"/>

<path d="m 351.01758,246.00586 a 1,1 0 0 0 -1,1 1,1 0 0 0 1,1 h 1.17969 l 2.65039,13.24219 c -1.07078,0.46018 -1.83008,1.52737 -1.83008,2.75781 0,1.6447 1.3553,3 3,3 h 17 a 1,1 0 0 0 1,-1 1,1 0 0 0 -1,-1 h -17 c -0.5713,0 -1,-0.4287 -1,-1 0,-0.5713 0.4287,-1 1,-1 h 15 a 1,1 0 0 0 0.0293,-0.006 h 2.9707 a 1.0001,1.0001 0 0 0 0.98828,-0.84375 l 0.93945,-5.96875 a 1,1 0 0 0 -0.83203,-1.14453 1,1 0 0 0 -1.14453,0.83398 L 373.16211,261 h -16.32422 l -1.80078,-8.99414 h 12.08399 a 1,1 0 0 0 1,-1 1,1 0 0 0 -1,-1 h -12.48438 l -0.63867,-3.19531 a 1.0001,1.0001 0 0 0 -0.98047,-0.80469 z" id="path21235" style="color:#ffffff;fill:#ffffff;fill-rule:evenodd;stroke-linecap:round;stroke-linejoin:round;stroke-miterlimit:4.1;-inkscape-stroke:none"/>

</g>

</svg>