<svg width="37" height="43" viewBox="0 0 37 43" fill="none" xmlns="http://www.w3.org/2000/svg">
<path d="M19.2321 0.397099C19.0152 0.252779 18.7606 0.175781 18.5 0.175781C18.2395 0.175781 17.9848 0.252779 17.768 0.397099C12.7786 3.76066 7.09112 5.94836 1.13379 6.79547C0.819025 6.84063 0.531099 6.99777 0.32284 7.23807C0.114581 7.47837 -4.23888e-05 7.7857 1.17591e-08 8.10369V19.9966C1.17591e-08 30.28 6.09709 37.783 18.0243 42.3737C18.3305 42.4918 18.6696 42.4918 18.9758 42.3737C30.903 37.783 37.0001 30.2773 37.0001 19.9966V8.10369C37 7.78531 36.8851 7.47765 36.6763 7.23729C36.4675 6.99694 36.1789 6.84005 35.8637 6.79547C29.9073 5.94798 24.2207 3.76029 19.2321 0.397099Z" fill="url(#paint0_linear_201_2054)"/>
<path d="M15.7603 23.5679L11.331 18.5966L10.8489 18.0555L10.3248 18.556L8.94422 19.8748L8.44719 20.3496L8.91283 20.8552L15.2241 27.7082L15.724 28.251L16.2397 27.7232L27.2845 16.4193L27.7793 15.9129L27.2674 15.4239L25.8868 14.1052L25.3839 13.6248L24.9003 14.1245L15.7603 23.5679Z" fill="#3B263A" stroke="#3A263A" stroke-width="1.4"/>
<defs>
<linearGradient id="paint0_linear_201_2054" x1="-5.0112e-07" y1="38.3166" x2="31.6862" y2="50.0573" gradientUnits="userSpaceOnUse">
<stop stop-color="#C9504E"/>
<stop offset="0.3" stop-color="#D35E4F"/>
<stop offset="0.86" stop-color="#EC8353"/>
</linearGradient>
</defs>
</svg>
