<svg width="40" height="40" viewBox="0 0 40 40" fill="none" xmlns="http://www.w3.org/2000/svg">
<path d="M25.0026 36.6693H6.66927C4.83594 36.6693 3.33594 35.1693 3.33594 33.3359V15.0026C3.33594 14.0026 4.0026 13.3359 5.0026 13.3359C6.0026 13.3359 6.66927 14.0026 6.66927 15.0026V33.3359H25.0026C26.0026 33.3359 26.6693 34.0026 26.6693 35.0026C26.6693 36.0026 26.0026 36.6693 25.0026 36.6693Z" fill="url(#paint0_linear_121_3043)"/>
<path d="M33.3333 33.0026H13.3333C11.5 33.0026 10 31.5026 10 29.6693V9.66927C10 7.83594 11.5 6.33594 13.3333 6.33594H33.3333C35.1667 6.33594 36.6667 7.83594 36.6667 9.66927V29.6693C36.6667 31.5026 35.1667 33.0026 33.3333 33.0026ZM13.3333 9.66927V29.6693H33.3333V9.66927H13.3333Z" fill="url(#paint1_linear_121_3043)"/>
<path d="M29.4974 17.4974C30.1641 16.8307 30.1641 15.8307 29.4974 15.1641C28.8307 14.4974 27.8307 14.4974 27.1641 15.1641L29.4974 17.4974ZM21.6641 22.9974L20.4974 24.1641C21.1641 24.8307 22.1641 24.8307 22.8307 24.1641L21.6641 22.9974ZM19.4974 18.4974C18.8307 17.8307 17.8307 17.8307 17.1641 18.4974C16.4974 19.1641 16.4974 20.1641 17.1641 20.8307L19.4974 18.4974ZM27.1641 15.1641L20.4974 21.8307L22.8307 24.1641L29.4974 17.4974L27.1641 15.1641ZM22.8307 21.8307L19.4974 18.4974L17.1641 20.8307L20.4974 24.1641L22.8307 21.8307Z" fill="url(#paint2_linear_121_3043)"/>
<defs>
<linearGradient id="paint0_linear_121_3043" x1="-3.31958" y1="18.3471" x2="20.8563" y2="42.5229" gradientUnits="userSpaceOnUse">
<stop stop-color="#FF5977"/>
<stop offset="1" stop-color="#E985FF"/>
</linearGradient>
<linearGradient id="paint1_linear_121_3043" x1="2.3937" y1="12.063" x2="30.0232" y2="39.6925" gradientUnits="userSpaceOnUse">
<stop stop-color="#FF5977"/>
<stop offset="1" stop-color="#E985FF"/>
</linearGradient>
<linearGradient id="paint2_linear_121_3043" x1="12.8609" y1="16.8117" x2="22.8075" y2="30.0739" gradientUnits="userSpaceOnUse">
<stop stop-color="#FF5977"/>
<stop offset="1" stop-color="#E985FF"/>
</linearGradient>
</defs>
</svg>
