<svg xmlns:xlink="http://www.w3.org/1999/xlink" _ngcontent-ptl-c54="" width="14" height="14" viewbox="0 0 14 14" fill="none" xmlns="http://www.w3.org/2000/svg"><path _ngcontent-ptl-c54="" d="M6.21053 1H7.78947C7.92982 1 8 1.04444 8 1.13333V12.8667C8 12.9556 7.92982 13 7.78947 13H6.21053C6.07018 13 6 12.9556 6 12.8667V1.13333C6 1.04444 6.07018 1 6.21053 1Z" fill="#FFFFFF" stroke="#FFFFFF" stroke-width="0.2px"></path><path _ngcontent-ptl-c54="" d="M1.13953 6H12.8605C12.9535 6 13 6.07018 13 6.21053V7.78947C13 7.92982 12.9535 8 12.8605 8H1.13953C1.04651 8 1 7.92982 1 7.78947V6.21053C1 6.07018 1.04651 6 1.13953 6Z" fill="#FFFFFF" stroke="#FFFFFF" stroke-width="0.2px"></path></svg>