<svg xmlns:xlink="http://www.w3.org/1999/xlink" width="20" height="20" viewbox="0 0 20 20" fill="none" xmlns="http://www.w3.org/2000/svg"><path d="M14.5833 0.833496H5.41665C2.84998 0.833496 0.833313 2.85016 0.833313 5.41683V10.9168V11.8335C0.833313 14.3085 2.84998 16.4168 5.41665 16.4168H6.79165C7.06665 16.4168 7.34165 16.6002 7.52498 16.7835L8.89998 18.6168C9.54165 19.4418 10.4583 19.4418 11.1 18.6168L12.475 16.7835C12.6583 16.5085 12.9333 16.4168 13.2083 16.4168H14.5833C17.15 16.4168 19.1666 14.4002 19.1666 11.8335V5.41683C19.1666 2.85016 17.15 0.833496 14.5833 0.833496ZM10.9166 11.6502H5.41665C5.04998 11.6502 4.68331 11.3752 4.68331 10.9168C4.68331 10.4585 4.95831 10.1835 5.41665 10.1835H10.9166C11.2833 10.1835 11.65 10.4585 11.65 10.9168C11.65 11.3752 11.2833 11.6502 10.9166 11.6502ZM14.5833 7.06683H5.41665C5.04998 7.06683 4.77498 6.70016 4.77498 6.3335C4.77498 5.96683 5.04998 5.69183 5.41665 5.69183H14.5833C14.95 5.69183 15.3166 5.96683 15.3166 6.42516C15.3166 6.8835 14.95 7.06683 14.5833 7.06683Z" fill="#FFFFFF"></path></svg>