<svg xmlns:xlink="http://www.w3.org/1999/xlink" _ngcontent-wwm-c49="" width="15" height="15" viewbox="0 0 15 15" fill="none" xmlns="http://www.w3.org/2000/svg"><g _ngcontent-wwm-c49="" clip-path="url(#clip0_149_407)" fill="none"><path _ngcontent-wwm-c49="" d="M5.78121 0H1.09371C0.490608 0 0 0.490608 0 1.09371V3.90621C0 4.50943 0.490608 5.00004 1.09371 5.00004H5.78121C6.38443 5.00004 6.87504 4.50943 6.87504 3.90621V1.09371C6.87504 0.490608 6.38443 0 5.78121 0Z" fill="#FFFFFF"></path><path _ngcontent-wwm-c49="" d="M5.78121 6.25H1.09371C0.490608 6.25 0 6.74061 0 7.34383V13.9063C0 14.5094 0.490608 15 1.09371 15H5.78121C6.38443 15 6.87504 14.5094 6.87504 13.9063V7.34383C6.87504 6.74061 6.38443 6.25 5.78121 6.25Z" fill="#FFFFFF"></path><path _ngcontent-wwm-c49="" d="M13.9063 10H9.21883C8.61561 10 8.125 10.4906 8.125 11.0938V13.9063C8.125 14.5094 8.61561 15 9.21883 15H13.9063C14.5094 15 15 14.5094 15 13.9063V11.0938C15 10.4906 14.5094 10 13.9063 10Z" fill="#FFFFFF"></path><path _ngcontent-wwm-c49="" d="M13.9063 0H9.21883C8.61561 0 8.125 0.490608 8.125 1.09371V7.65621C8.125 8.25943 8.61561 8.75004 9.21883 8.75004H13.9063C14.5094 8.75004 15 8.25943 15 7.65621V1.09371C15 0.490608 14.5094 0 13.9063 0V0Z" fill="#FFFFFF"></path></g><defs _ngcontent-wwm-c49=""><clipPath _ngcontent-wwm-c49="" id="clip0_149_407"><rect _ngcontent-wwm-c49="" width="15" height="15" fill="white"></rect></clipPath></defs></svg>