<svg xmlns:xlink="http://www.w3.org/1999/xlink" _ngcontent-gau-c132="" width="19" height="19" viewbox="0 0 19 19" fill="none" xmlns="http://www.w3.org/2000/svg"><path _ngcontent-gau-c132="" d="M12.7036 1.61429C12.7036 1.20599 13.0345 0.875 13.4429 0.875C16.0287 0.875 18.125 2.97127 18.125 5.55714C18.125 5.96544 17.794 6.29643 17.3857 6.29643C16.9774 6.29643 16.6464 5.96544 16.6464 5.55714C16.6464 3.78786 15.2121 2.35357 13.4429 2.35357C13.0345 2.35357 12.7036 2.02259 12.7036 1.61429Z" fill="#FFFFFF" fill-opacity="0.3"></path><path _ngcontent-gau-c132="" d="M9.50042 4.3252C8.1394 4.3252 7.03613 5.4285 7.03613 6.78948C7.03613 8.15048 8.1394 9.25381 9.50042 9.25381C10.8614 9.25381 11.9647 8.15048 11.9647 6.78948C11.9647 5.4285 10.8614 4.3252 9.50042 4.3252Z" fill="#FFFFFF" fill-opacity="0.3"></path><path _ngcontent-gau-c132="" d="M7.83887 10.0013C6.66642 10.1885 5.80371 11.1998 5.80371 12.3871V12.5694C5.80371 13.4596 6.52534 14.1813 7.41551 14.1813H11.5848C12.4749 14.1813 13.1965 13.4596 13.1965 12.5694V12.3871C13.1965 11.1998 12.3338 10.1885 11.1614 10.0013C10.0609 9.82574 8.93942 9.82574 7.83887 10.0013Z" fill="#FFFFFF" fill-opacity="0.3"></path><path _ngcontent-gau-c132="" d="M2.35357 13.4424C2.35357 13.034 2.02259 12.7031 1.61429 12.7031C1.20599 12.7031 0.875 13.034 0.875 13.4424C0.875 16.0283 2.97127 18.1245 5.55714 18.1245C5.96544 18.1245 6.29643 17.7935 6.29643 17.3853C6.29643 16.9769 5.96544 16.6459 5.55714 16.6459C3.78785 16.6459 2.35357 15.2117 2.35357 13.4424Z" fill="#FFFFFF" fill-opacity="0.3"></path><path _ngcontent-gau-c132="" d="M0.875 5.55714C0.875 2.97127 2.97127 0.875 5.55714 0.875C5.96544 0.875 6.29643 1.20599 6.29643 1.61429C6.29643 2.02259 5.96544 2.35357 5.55714 2.35357C3.78786 2.35357 2.35357 3.78786 2.35357 5.55714C2.35357 5.96544 2.02259 6.29643 1.61429 6.29643C1.20599 6.29643 0.875 5.96544 0.875 5.55714Z" fill="#FFFFFF" fill-opacity="0.3"></path><path _ngcontent-gau-c132="" d="M18.125 13.4424C18.125 13.034 17.794 12.7031 17.3857 12.7031C16.9774 12.7031 16.6464 13.034 16.6464 13.4424C16.6464 15.2117 15.2121 16.6459 13.4429 16.6459C13.0345 16.6459 12.7036 16.9769 12.7036 17.3853C12.7036 17.7935 13.0345 18.1245 13.4429 18.1245C16.0287 18.1245 18.125 16.0283 18.125 13.4424Z" fill="#FFFFFF" fill-opacity="0.3"></path></svg>